<svg width="256" height="256" viewBox="0 0 256 256" fill="none" xmlns="http://www.w3.org/2000/svg" role="img" aria-labelledby="title desc">
  <title id="title">Breakthrough logo</title>
  <desc id="desc">A white pawn and a black pawn bursting through a brick wall.</desc>
  <defs>
    <linearGradient id="white-pawn" x1="129" y1="43" x2="129" y2="206" gradientUnits="userSpaceOnUse">
      <stop stop-color="#fffaf0" />
      <stop offset="0.5" stop-color="#e9dcc6" />
      <stop offset="1" stop-color="#b79d72" />
    </linearGradient>
    <linearGradient id="black-pawn" x1="157" y1="58" x2="157" y2="218" gradientUnits="userSpaceOnUse">
      <stop stop-color="#4b5563" />
      <stop offset="0.52" stop-color="#18181b" />
      <stop offset="1" stop-color="#050505" />
    </linearGradient>
    <linearGradient id="brick-face" x1="34" y1="44" x2="215" y2="211" gradientUnits="userSpaceOnUse">
      <stop stop-color="#d97706" />
      <stop offset="1" stop-color="#7c2d12" />
    </linearGradient>
    <filter id="shadow" x="10" y="22" width="230" height="220" filterUnits="userSpaceOnUse" color-interpolation-filters="sRGB">
      <feDropShadow dx="0" dy="14" stdDeviation="13" flood-color="#020617" flood-opacity="0.35" />
    </filter>
  </defs>

  <circle cx="128" cy="128" r="118" fill="#111827" />
  <circle cx="128" cy="128" r="110" fill="#172033" stroke="#334155" stroke-width="4" />

  <g filter="url(#shadow)">
    <path d="M38 73H95L83 107H28L38 73Z" fill="url(#brick-face)" />
    <path d="M104 55H159L145 94H90L104 55Z" fill="#b45309" />
    <path d="M169 70H218L226 106H158L169 70Z" fill="#92400e" />
    <path d="M25 119H77L62 154H33L25 119Z" fill="#a34412" />
    <path d="M183 121H232L219 158H171L183 121Z" fill="#b45309" />
    <path d="M55 169H107L96 213H45L55 169Z" fill="#78350f" />
    <path d="M158 174H211L198 215H144L158 174Z" fill="#9a3412" />
    <path d="M85 101L116 68L128 109L166 78L151 124L202 116L166 145L208 178L151 169L133 217L115 171L61 187L96 147L45 125L101 124L85 101Z" fill="#f8fafc" fill-opacity="0.92" />
    <path d="M85 101L116 68L128 109L166 78L151 124L202 116L166 145L208 178L151 169L133 217L115 171L61 187L96 147L45 125L101 124L85 101Z" stroke="#e2e8f0" stroke-width="5" stroke-linejoin="round" />
  </g>

  <g filter="url(#shadow)">
    <path d="M160 87C177.673 87 192 101.327 192 119V136H202C210.837 136 218 143.163 218 152V166C218 174.837 210.837 182 202 182H118C109.163 182 102 174.837 102 166V152C102 143.163 109.163 136 118 136H128V119C128 101.327 142.327 87 160 87Z" fill="url(#black-pawn)" />
    <circle cx="160" cy="65" r="25" fill="url(#black-pawn)" />
    <path d="M116 182H204V198C204 205.732 197.732 212 190 212H130C122.268 212 116 205.732 116 198V182Z" fill="#050505" />
    <path d="M120 212H200" stroke="#020617" stroke-width="10" stroke-linecap="round" />
    <path d="M146 45C137.716 49.574 133 56.17 133 65" stroke="#9ca3af" stroke-opacity="0.5" stroke-width="7" stroke-linecap="round" />
    <path d="M160 87C177.673 87 192 101.327 192 119V136H202C210.837 136 218 143.163 218 152V166C218 174.837 210.837 182 202 182H118C109.163 182 102 174.837 102 166V152C102 143.163 109.163 136 118 136H128V119C128 101.327 142.327 87 160 87Z" stroke="#020617" stroke-width="8" stroke-linejoin="round" />
    <circle cx="160" cy="65" r="25" stroke="#020617" stroke-width="8" />
  </g>

  <g filter="url(#shadow)">
    <path d="M105 79C124.33 79 140 94.67 140 114V133H151C160.389 133 168 140.611 168 150V165C168 174.389 160.389 182 151 182H59C49.611 182 42 174.389 42 165V150C42 140.611 49.611 133 59 133H70V114C70 94.67 85.67 79 105 79Z" fill="url(#white-pawn)" />
    <circle cx="105" cy="55" r="27" fill="url(#white-pawn)" />
    <path d="M58 182H152V199C152 207.284 145.284 214 137 214H73C64.716 214 58 207.284 58 199V182Z" fill="#c9ad7a" />
    <path d="M62 214H148" stroke="#7c5f36" stroke-width="10" stroke-linecap="round" />
    <path d="M90 35C81.274 39.799 76 47.036 76 56" stroke="#ffffff" stroke-opacity="0.75" stroke-width="8" stroke-linecap="round" />
    <path d="M105 79C124.33 79 140 94.67 140 114V133H151C160.389 133 168 140.611 168 150V165C168 174.389 160.389 182 151 182H59C49.611 182 42 174.389 42 165V150C42 140.611 49.611 133 59 133H70V114C70 94.67 85.67 79 105 79Z" stroke="#7f633a" stroke-width="8" stroke-linejoin="round" />
    <circle cx="105" cy="55" r="27" stroke="#7f633a" stroke-width="8" />
  </g>
</svg>
